# xmcd
#
# Track frame offsets:
#	150
#	14769
#	31381
#	48311
#	61452
#	75577
#	89693
#	102380
#	121591
#	139338
#	155469
#	174989
#	195433
#	212291
#	225579
#	242320
#	259087
#	275490
#	294500
#
# Disc length: 4171 seconds
#
# Revision: 2
# Processed by: cddbd v1.5.2PL0 Copyright (c) Steve Scherf et al.
# Submitted via: audiograbber 1.82.02
#
DISCID=fe104913
DTITLE=Various Artist  - Country Radio - October 2013
DYEAR=2013
DGENRE=Country
TTITLE0=Cole Swindell - Chillin' It
TTITLE1=Uncle Kracker - Blue Skies
TTITLE2=Jason Mitchell - Stomp
TTITLE3=Ash Bowers - Shake It Off
TTITLE4=Luke Bryan - That's My Kind Of Night
TTITLE5=Jake Owen - Days Of Gold (Single Edit)
TTITLE6=Laura Bell Bundy - Two-Step
TTITLE7=Brad Paisley - I Can't Change The World (Radio Edit)
TTITLE8=Jennifer Nettles - That Girl
TTITLE9=Colton James - 101 Proof
TTITLE10=Carrie Underwood - See You Again (American Idol Live Ver)
TTITLE11=Zac Brown Band - Sweet Annie
TTITLE12=Dierks Bentley - I Hold On
TTITLE13=Angie Johnson - Swagger
TTITLE14=Austin Webb - Slip On By
TTITLE15=Ronnie Dunn - Kiss You There
TTITLE16=Rachel Holder - Lord Help Me
TTITLE17=Kristy Lee Cook (Ft. Randy Houser) - Wherever Love Goes
TTITLE18=Band Perry - Don't Let Me Be Lonely
EXTD=
EXTT0=
EXTT1=
EXTT2=
EXTT3=
EXTT4=
EXTT5=
EXTT6=
EXTT7=
EXTT8=
EXTT9=
EXTT10=
EXTT11=
EXTT12=
EXTT13=
EXTT14=
EXTT15=
EXTT16=
EXTT17=
EXTT18=
PLAYORDER=
